<svg xmlns="http://www.w3.org/2000/svg" viewBox="0 0 640 320" role="img" aria-labelledby="bike-silhouette-title">
  <title id="bike-silhouette-title">バイクシルエット</title>
  <defs>
    <linearGradient id="bike-surface" x1="0%" x2="100%" y1="0%" y2="0%">
      <stop offset="0%" stop-color="#444" />
      <stop offset="100%" stop-color="#1f1f1f" />
    </linearGradient>
    <filter id="bike-shadow" x="-20%" y="-20%" width="140%" height="140%">
      <feDropShadow dx="0" dy="8" stdDeviation="10" flood-color="#0f172a" flood-opacity="0.18" />
    </filter>
  </defs>

  <g filter="url(#bike-shadow)">
    <circle cx="142" cy="236" r="54" fill="none" stroke="#232323" stroke-width="24" />
    <circle cx="494" cy="236" r="54" fill="none" stroke="#232323" stroke-width="24" />

    <path
      d="M168 228h84l60-68h86l44 16 52 56h-44l-28-36h-82l-48 36H168z"
      fill="url(#bike-surface)"
    />
    <path
      d="M230 224l62-78h64l-40 28-38 50z"
      fill="url(#bike-surface)"
    />
    <path
      d="M342 146h74c18 0 34 12 38 29l6 25h-64l-24-28z"
      fill="#2e2e2e"
    />
    <path
      d="M280 114h84l40 28h-148z"
      fill="#232323"
    />
    <path
      d="M260 116h66l-16-24h-64z"
      fill="#2a2a2a"
    />
    <path
      d="M424 132l42-10 20 10-14 18-44 10z"
      fill="#2a2a2a"
    />
    <path
      d="M484 138l32-36h18l-26 44z"
      fill="#232323"
    />
    <path
      d="M332 168h58l26 28-16 38h-86l-18-26z"
      fill="#262626"
    />
    <path
      d="M240 148l28 12-38 74h-20z"
      fill="#262626"
    />
    <path
      d="M438 190l28-24 56 70h-24z"
      fill="#262626"
    />
    <rect x="106" y="222" width="72" height="14" rx="7" fill="#232323" />
    <rect x="458" y="222" width="70" height="14" rx="7" fill="#232323" />
  </g>
</svg>
